<mxfile host="app.diagrams.net" agent="Mozilla/5.0 (Windows NT 10.0; Win64; x64) AppleWebKit/537.36 (KHTML, like Gecko) Chrome/132.0.0.0 Safari/537.36" version="26.0.12">
  <diagram name="第 1 页" id="UtHvRyeTNqiTJBGVixGH">
    <mxGraphModel dx="712" dy="1229" grid="0" gridSize="10" guides="1" tooltips="1" connect="1" arrows="1" fold="1" page="0" pageScale="1" pageWidth="827" pageHeight="1169" math="0" shadow="0">
      <root>
        <mxCell id="0" />
        <mxCell id="1" parent="0" />
        <mxCell id="EwkwO3lurYnrsZaEtjiG-6" style="edgeStyle=none;curved=1;rounded=0;orthogonalLoop=1;jettySize=auto;html=1;exitX=0.5;exitY=1;exitDx=0;exitDy=0;entryX=0.5;entryY=0;entryDx=0;entryDy=0;fontSize=12;startSize=8;endSize=8;" edge="1" parent="1" source="EwkwO3lurYnrsZaEtjiG-1" target="EwkwO3lurYnrsZaEtjiG-4">
          <mxGeometry relative="1" as="geometry" />
        </mxCell>
        <mxCell id="EwkwO3lurYnrsZaEtjiG-1" value="get the input from user" style="shape=parallelogram;perimeter=parallelogramPerimeter;whiteSpace=wrap;html=1;fixedSize=1;size=3;" vertex="1" parent="1">
          <mxGeometry x="81" y="18" width="120" height="60" as="geometry" />
        </mxCell>
        <mxCell id="EwkwO3lurYnrsZaEtjiG-3" style="edgeStyle=none;curved=1;rounded=0;orthogonalLoop=1;jettySize=auto;html=1;entryX=0.5;entryY=0;entryDx=0;entryDy=0;fontSize=12;startSize=8;endSize=8;" edge="1" parent="1" source="EwkwO3lurYnrsZaEtjiG-2" target="EwkwO3lurYnrsZaEtjiG-1">
          <mxGeometry relative="1" as="geometry" />
        </mxCell>
        <mxCell id="EwkwO3lurYnrsZaEtjiG-2" value="Start" style="rounded=1;whiteSpace=wrap;html=1;" vertex="1" parent="1">
          <mxGeometry x="81" y="-69" width="120" height="60" as="geometry" />
        </mxCell>
        <mxCell id="EwkwO3lurYnrsZaEtjiG-8" style="edgeStyle=none;curved=1;rounded=0;orthogonalLoop=1;jettySize=auto;html=1;entryX=0.5;entryY=0;entryDx=0;entryDy=0;fontSize=12;startSize=8;endSize=8;" edge="1" parent="1" source="EwkwO3lurYnrsZaEtjiG-4" target="EwkwO3lurYnrsZaEtjiG-7">
          <mxGeometry relative="1" as="geometry" />
        </mxCell>
        <mxCell id="EwkwO3lurYnrsZaEtjiG-17" style="edgeStyle=none;curved=1;rounded=0;orthogonalLoop=1;jettySize=auto;html=1;entryX=0;entryY=0.5;entryDx=0;entryDy=0;fontSize=12;startSize=8;endSize=8;" edge="1" parent="1" source="EwkwO3lurYnrsZaEtjiG-4" target="EwkwO3lurYnrsZaEtjiG-16">
          <mxGeometry relative="1" as="geometry" />
        </mxCell>
        <mxCell id="EwkwO3lurYnrsZaEtjiG-4" value="Verify the input" style="rounded=0;whiteSpace=wrap;html=1;" vertex="1" parent="1">
          <mxGeometry x="81" y="119" width="120" height="59" as="geometry" />
        </mxCell>
        <mxCell id="EwkwO3lurYnrsZaEtjiG-22" style="edgeStyle=none;curved=1;rounded=0;orthogonalLoop=1;jettySize=auto;html=1;exitX=0.5;exitY=1;exitDx=0;exitDy=0;fontSize=12;startSize=8;endSize=8;" edge="1" parent="1" source="EwkwO3lurYnrsZaEtjiG-7" target="EwkwO3lurYnrsZaEtjiG-23">
          <mxGeometry relative="1" as="geometry">
            <mxPoint x="141" y="320" as="targetPoint" />
          </mxGeometry>
        </mxCell>
        <mxCell id="EwkwO3lurYnrsZaEtjiG-7" value="Start generate" style="rounded=0;whiteSpace=wrap;html=1;" vertex="1" parent="1">
          <mxGeometry x="81" y="216" width="120" height="57" as="geometry" />
        </mxCell>
        <mxCell id="EwkwO3lurYnrsZaEtjiG-25" style="edgeStyle=none;curved=1;rounded=0;orthogonalLoop=1;jettySize=auto;html=1;exitX=0.5;exitY=0;exitDx=0;exitDy=0;entryX=1;entryY=0.5;entryDx=0;entryDy=0;fontSize=12;startSize=8;endSize=8;" edge="1" parent="1" source="EwkwO3lurYnrsZaEtjiG-16" target="EwkwO3lurYnrsZaEtjiG-1">
          <mxGeometry relative="1" as="geometry" />
        </mxCell>
        <mxCell id="EwkwO3lurYnrsZaEtjiG-16" value="Wait for another input" style="rounded=0;whiteSpace=wrap;html=1;" vertex="1" parent="1">
          <mxGeometry x="281" y="118" width="143" height="60" as="geometry" />
        </mxCell>
        <mxCell id="EwkwO3lurYnrsZaEtjiG-18" value="Valid" style="text;html=1;align=center;verticalAlign=middle;whiteSpace=wrap;rounded=0;" vertex="1" parent="1">
          <mxGeometry x="132" y="182" width="60" height="30" as="geometry" />
        </mxCell>
        <mxCell id="EwkwO3lurYnrsZaEtjiG-19" value="invalid" style="text;html=1;align=center;verticalAlign=middle;whiteSpace=wrap;rounded=0;" vertex="1" parent="1">
          <mxGeometry x="207" y="116" width="60" height="30" as="geometry" />
        </mxCell>
        <mxCell id="EwkwO3lurYnrsZaEtjiG-24" style="edgeStyle=none;curved=1;rounded=0;orthogonalLoop=1;jettySize=auto;html=1;fontSize=12;startSize=8;endSize=8;entryX=0.5;entryY=1;entryDx=0;entryDy=0;exitX=1;exitY=0.5;exitDx=0;exitDy=0;" edge="1" parent="1" source="EwkwO3lurYnrsZaEtjiG-23" target="EwkwO3lurYnrsZaEtjiG-16">
          <mxGeometry relative="1" as="geometry">
            <mxPoint x="367" y="356" as="targetPoint" />
          </mxGeometry>
        </mxCell>
        <mxCell id="EwkwO3lurYnrsZaEtjiG-23" value="Output the result" style="rounded=0;whiteSpace=wrap;html=1;" vertex="1" parent="1">
          <mxGeometry x="81" y="307" width="120" height="60" as="geometry" />
        </mxCell>
      </root>
    </mxGraphModel>
  </diagram>
</mxfile>
